<?xml version="1.0" encoding="utf-8"?>
<!-- Generator: Adobe Illustrator 19.0.0, SVG Export Plug-In . SVG Version: 6.00 Build 0)  -->
<svg version="1.1" id="Layer_1" xmlns="http://www.w3.org/2000/svg" xmlns:xlink="http://www.w3.org/1999/xlink" x="0px" y="0px"
	 viewBox="0 0 612 256" style="enable-background:new 0 0 612 256;" xml:space="preserve">
<style type="text/css">
	.st0{fill:#5C39C7;}
	.st1{fill:#808080;}
	.st2{fill:#51409E;}
	.st3{fill:#FD7100;}
	.st4{clip-path:url(#SVGID_2_);fill:none;stroke:#FD7100;stroke-width:4.4345;stroke-miterlimit:10;}
</style>
<g>
	<path class="st0" d="M73.3,139.2V71.1h3.6c1.2,0,1.9,0.6,2.1,1.7l0.6,9.9c1.3-1.9,2.7-3.6,4.2-5.1c1.5-1.6,3.1-2.9,4.8-4
		c1.7-1.1,3.5-2,5.5-2.6c1.9-0.6,4-0.9,6.1-0.9c5,0,8.9,1.5,11.9,4.3c3,2.9,5,6.9,6,12.1c0.8-2.8,2-5.3,3.5-7.3
		c1.5-2.1,3.2-3.8,5.1-5.1c1.9-1.3,4-2.4,6.3-3c2.3-0.7,4.6-1,6.9-1c3.4,0,6.4,0.6,9.1,1.7c2.7,1.1,5,2.8,6.9,5
		c1.9,2.2,3.3,4.9,4.3,8.1c1,3.2,1.5,6.9,1.5,11v43.6h-6.5V95.7c0-6.7-1.4-11.7-4.3-15.2c-2.9-3.5-7-5.2-12.3-5.2
		c-2.4,0-4.6,0.4-6.8,1.3c-2.2,0.9-4.1,2.2-5.8,3.9c-1.7,1.7-3,3.8-4,6.4c-1,2.6-1.5,5.5-1.5,8.9v43.6h-6.5V95.7
		c0-6.6-1.3-11.7-4-15.2c-2.6-3.5-6.5-5.3-11.6-5.3c-3.7,0-7.1,1.1-10.3,3.3c-3.2,2.2-6,5.3-8.4,9.2v51.5H73.3z"/>
	<path class="st0" d="M337,69.9c3,0,5.7,0.4,8.3,1.1c2.5,0.7,4.8,1.8,6.8,3.1h17.5v2.3c0,1.1-0.6,1.8-1.9,1.8L357.3,79
		c1.3,1.7,2.3,3.7,2.9,5.9c0.7,2.2,1,4.5,1,7c0,3.3-0.6,6.3-1.8,8.9c-1.2,2.7-2.8,5-5,6.9c-2.1,1.9-4.7,3.4-7.6,4.4
		c-3,1.1-6.3,1.6-9.9,1.6c-3.9,0-7.5-0.6-10.7-1.8c-1.9,1.1-3.4,2.4-4.5,3.9c-1.1,1.5-1.6,3-1.6,4.4c0,2,0.7,3.5,2.1,4.5
		c1.4,1.1,3.2,1.8,5.4,2.3s4.8,0.8,7.7,0.9c2.9,0.1,5.8,0.3,8.8,0.4c3,0.2,5.9,0.4,8.8,0.9c2.9,0.4,5.5,1.1,7.7,2.2
		c2.3,1,4.1,2.5,5.4,4.3s2.1,4.3,2.1,7.4c0,2.8-0.7,5.5-2.1,8.2c-1.4,2.6-3.5,4.9-6.1,6.9s-5.9,3.6-9.7,4.8c-3.8,1.2-8,1.8-12.7,1.8
		c-4.8,0-9-0.5-12.6-1.5c-3.6-1-6.6-2.3-9.1-4c-2.4-1.7-4.3-3.6-5.5-5.8c-1.2-2.2-1.8-4.5-1.8-7c0-3.6,1.2-6.7,3.6-9.3
		c2.4-2.6,5.6-4.6,9.8-6c-2.3-0.8-4.1-1.9-5.4-3.4c-1.3-1.5-2-3.5-2-6.1c0-1,0.2-2,0.5-3c0.4-1,0.9-2.1,1.6-3.1c0.7-1,1.6-2,2.6-2.9
		c1-0.9,2.2-1.7,3.6-2.5c-3.2-1.9-5.8-4.4-7.6-7.5c-1.8-3.1-2.7-6.7-2.7-10.9c0-3.3,0.6-6.3,1.7-8.9s2.8-5,4.9-6.9
		c2.1-1.9,4.7-3.4,7.7-4.5C330,70.4,333.3,69.9,337,69.9z M362.3,143.8c0-2.1-0.6-3.9-1.7-5.2c-1.1-1.3-2.6-2.3-4.5-3
		c-1.9-0.7-4-1.2-6.5-1.5c-2.4-0.3-5-0.5-7.7-0.7c-2.7-0.1-5.4-0.3-8-0.4c-2.7-0.1-5.2-0.4-7.5-0.8c-1.7,0.7-3.3,1.5-4.8,2.4
		c-1.5,0.9-2.8,1.9-3.8,3c-1.1,1.1-1.9,2.4-2.5,3.7c-0.6,1.3-0.9,2.8-0.9,4.4c0,2,0.5,3.9,1.5,5.6c1,1.7,2.5,3.2,4.5,4.5
		c2,1.3,4.4,2.2,7.3,3c2.9,0.7,6.2,1.1,9.9,1.1c3.5,0,6.7-0.4,9.7-1.2c3-0.8,5.6-1.9,7.8-3.3c2.2-1.4,3.9-3.1,5.2-5.1
		C361.6,148.3,362.3,146.2,362.3,143.8z M337,109.1c2.9,0,5.5-0.4,7.8-1.3c2.3-0.8,4.2-2,5.8-3.5c1.6-1.5,2.7-3.3,3.5-5.4
		c0.8-2.1,1.2-4.4,1.2-7c0-2.6-0.4-4.9-1.2-7c-0.8-2.1-2-3.9-3.6-5.4c-1.6-1.5-3.5-2.7-5.8-3.5c-2.3-0.8-4.8-1.2-7.7-1.2
		s-5.5,0.4-7.7,1.2c-2.3,0.8-4.2,2-5.8,3.5c-1.6,1.5-2.8,3.3-3.6,5.4c-0.8,2.1-1.2,4.5-1.2,7c0,2.6,0.4,4.9,1.2,7
		c0.8,2.1,2,3.9,3.6,5.4s3.5,2.7,5.8,3.5C331.5,108.7,334.1,109.1,337,109.1z"/>
	<path class="st0" d="M383.6,163.3V71.1h3.6c0.6,0,1.1,0.1,1.4,0.4c0.4,0.3,0.6,0.7,0.6,1.3l0.6,10.5c3-4.1,6.5-7.4,10.6-9.8
		c4-2.4,8.6-3.6,13.6-3.6c8.4,0,14.9,2.9,19.6,8.7c4.7,5.8,7,14.5,7,26.1c0,5-0.7,9.6-2,13.9c-1.3,4.3-3.2,8.1-5.7,11.2
		c-2.5,3.2-5.6,5.7-9.3,7.5c-3.7,1.8-7.9,2.7-12.7,2.7c-4.7,0-8.7-0.8-12.1-2.5c-3.4-1.7-6.3-4.2-8.8-7.5v33.3H383.6z M412.2,75.2
		c-4.5,0-8.6,1.2-12.3,3.5c-3.7,2.4-6.9,5.6-9.8,9.8v35.8c2.6,3.9,5.5,6.7,8.7,8.3c3.2,1.6,6.8,2.4,10.9,2.4c4,0,7.5-0.7,10.5-2.2
		c3-1.5,5.5-3.5,7.6-6.2c2-2.7,3.6-5.9,4.6-9.6c1-3.7,1.5-7.8,1.5-12.3c0-10.1-1.9-17.6-5.6-22.4C424.6,77.6,419.2,75.2,412.2,75.2z
		"/>
	<path class="st0" d="M468.2,47.6c0,0.8-0.2,1.6-0.5,2.3c-0.3,0.7-0.8,1.3-1.3,1.9c-0.5,0.5-1.2,1-1.9,1.3c-0.7,0.3-1.5,0.5-2.3,0.5
		c-0.8,0-1.6-0.2-2.3-0.5c-0.7-0.3-1.4-0.8-1.9-1.3c-0.5-0.5-1-1.2-1.3-1.9c-0.3-0.7-0.5-1.5-0.5-2.3c0-0.8,0.2-1.6,0.5-2.4
		c0.3-0.8,0.8-1.4,1.3-2c0.5-0.5,1.2-1,1.9-1.3c0.7-0.3,1.5-0.5,2.3-0.5c0.8,0,1.6,0.2,2.3,0.5c0.7,0.3,1.4,0.8,1.9,1.3
		c0.5,0.5,1,1.2,1.3,2S468.2,46.8,468.2,47.6z M465.3,71.1v68.2h-6.5V71.1H465.3z"/>
	<path class="st0" d="M515.1,70c3.8,0,7.4,0.7,10.7,2c3.3,1.3,6.1,3.3,8.5,5.8c2.4,2.5,4.3,5.7,5.6,9.4c1.3,3.7,2,7.9,2,12.7
		c0,1-0.1,1.7-0.4,2.1c-0.3,0.4-0.8,0.5-1.4,0.5h-49.2v1.3c0,5.1,0.6,9.6,1.8,13.5c1.2,3.9,2.9,7.1,5.1,9.8c2.2,2.6,4.8,4.6,7.9,5.9
		c3.1,1.3,6.6,2,10.4,2c3.4,0,6.4-0.4,8.9-1.1c2.5-0.8,4.6-1.6,6.3-2.5c1.7-0.9,3.1-1.8,4.1-2.5c1-0.8,1.7-1.1,2.2-1.1
		c0.6,0,1,0.2,1.4,0.7l1.8,2.2c-1.1,1.4-2.5,2.6-4.3,3.8c-1.8,1.2-3.8,2.2-6,3c-2.2,0.8-4.6,1.5-7.1,2c-2.5,0.5-5.1,0.8-7.6,0.8
		c-4.7,0-8.9-0.8-12.7-2.4c-3.8-1.6-7.1-4-9.9-7.1c-2.7-3.1-4.9-6.9-6.4-11.4c-1.5-4.5-2.2-9.6-2.2-15.4c0-4.9,0.7-9.4,2.1-13.5
		c1.4-4.1,3.4-7.7,6-10.7c2.6-3,5.8-5.3,9.7-7C506,70.8,510.3,70,515.1,70z M515.2,74.8c-3.5,0-6.7,0.5-9.4,1.6
		c-2.8,1.1-5.2,2.7-7.2,4.7c-2,2.1-3.7,4.5-4.9,7.4c-1.3,2.9-2.1,6.1-2.5,9.7H536c0-3.7-0.5-6.9-1.5-9.8c-1-2.9-2.4-5.4-4.2-7.4
		c-1.8-2-4-3.5-6.6-4.6C521.2,75.4,518.3,74.8,515.2,74.8z"/>
</g>
<g>
	<path class="st1" d="M71,189.8h2.5c0.3,0,0.5,0.1,0.7,0.2c0.2,0.1,0.3,0.3,0.4,0.5l6.4,16c0.1,0.4,0.3,0.7,0.4,1.2
		c0.1,0.4,0.2,0.9,0.4,1.3c0.1-0.5,0.2-0.9,0.3-1.3c0.1-0.4,0.2-0.8,0.4-1.2l6.4-16c0.1-0.2,0.2-0.3,0.4-0.5
		c0.2-0.2,0.4-0.2,0.7-0.2h2.5L83,212.5h-2.8L71,189.8z"/>
	<path class="st1" d="M124.3,212.5H122c-0.3,0-0.5-0.1-0.7-0.2c-0.2-0.1-0.3-0.3-0.4-0.5l-2.1-5.5h-10.2l-2.1,5.5
		c-0.1,0.2-0.2,0.4-0.4,0.5c-0.2,0.1-0.4,0.2-0.7,0.2h-2.4l9.1-22.7h3.1L124.3,212.5z M109.5,204h8.5l-3.6-9.2
		c-0.2-0.6-0.5-1.3-0.7-2.1c-0.1,0.4-0.2,0.8-0.3,1.2c-0.1,0.4-0.2,0.7-0.3,1L109.5,204z"/>
	<path class="st1" d="M142.9,209.9h9.8v2.6h-12.9v-22.7h3.1V209.9z"/>
	<path class="st1" d="M177.6,210c0.9,0,1.8-0.2,2.5-0.5c0.7-0.3,1.4-0.8,1.9-1.3s0.9-1.3,1.2-2c0.3-0.8,0.4-1.7,0.4-2.6v-13.8h3.1
		v13.8c0,1.3-0.2,2.5-0.6,3.6c-0.4,1.1-1,2.1-1.8,2.9s-1.7,1.5-2.8,1.9c-1.1,0.5-2.4,0.7-3.8,0.7s-2.6-0.2-3.8-0.7
		c-1.1-0.5-2.1-1.1-2.8-1.9c-0.8-0.8-1.4-1.8-1.8-2.9s-0.6-2.3-0.6-3.6v-13.8h3.1v13.8c0,0.9,0.1,1.8,0.4,2.6c0.3,0.8,0.7,1.5,1.2,2
		s1.1,1,1.9,1.3C175.8,209.9,176.7,210,177.6,210z"/>
	<path class="st1" d="M218.5,189.8v2.5h-10.9v7.5h8.8v2.4h-8.8v7.7h10.9v2.5h-14v-22.7H218.5z"/>
	<path class="st1" d="M268.3,189.8v2.5h-10.9v7.9h9.3v2.5h-9.3v9.7h-3.1v-22.7H268.3z"/>
	<path class="st1" d="M306,201.1c0,1.7-0.3,3.3-0.8,4.7c-0.5,1.4-1.3,2.6-2.3,3.7c-1,1-2.2,1.8-3.5,2.4s-2.9,0.8-4.6,0.8
		s-3.2-0.3-4.6-0.8s-2.5-1.4-3.5-2.4c-1-1-1.7-2.2-2.3-3.7s-0.8-3-0.8-4.7c0-1.7,0.3-3.3,0.8-4.7s1.3-2.6,2.3-3.7
		c1-1,2.2-1.8,3.5-2.4c1.4-0.6,2.9-0.9,4.6-0.9s3.2,0.3,4.6,0.9c1.4,0.6,2.6,1.4,3.5,2.4c1,1,1.7,2.3,2.3,3.7
		C305.7,197.9,306,199.4,306,201.1z M302.9,201.1c0-1.4-0.2-2.6-0.6-3.8s-0.9-2-1.6-2.8c-0.7-0.8-1.5-1.4-2.5-1.8
		c-1-0.4-2.1-0.6-3.3-0.6c-1.2,0-2.3,0.2-3.3,0.6c-1,0.4-1.8,1-2.5,1.8c-0.7,0.8-1.2,1.7-1.6,2.8c-0.4,1.1-0.6,2.4-0.6,3.8
		s0.2,2.6,0.6,3.7c0.4,1.1,0.9,2,1.6,2.8c0.7,0.8,1.5,1.4,2.5,1.8c1,0.4,2.1,0.6,3.3,0.6c1.2,0,2.3-0.2,3.3-0.6c1-0.4,1.8-1,2.5-1.8
		s1.2-1.7,1.6-2.8S302.9,202.5,302.9,201.1z"/>
	<path class="st1" d="M326.2,203v9.5h-3.1v-22.7h6.4c1.4,0,2.7,0.1,3.7,0.4c1,0.3,1.9,0.7,2.6,1.3c0.7,0.5,1.2,1.2,1.5,2
		c0.3,0.8,0.5,1.6,0.5,2.6c0,0.8-0.1,1.6-0.4,2.2s-0.6,1.3-1.1,1.9c-0.5,0.6-1.1,1-1.8,1.4c-0.7,0.4-1.5,0.7-2.3,0.9
		c0.4,0.2,0.7,0.5,1,1l6.6,9h-2.7c-0.6,0-1-0.2-1.2-0.6l-5.9-8.1c-0.2-0.3-0.4-0.4-0.6-0.5c-0.2-0.1-0.5-0.2-0.9-0.2H326.2z
		 M326.2,200.8h3.2c0.9,0,1.7-0.1,2.4-0.3c0.7-0.2,1.3-0.5,1.7-0.9c0.5-0.4,0.8-0.9,1-1.4c0.2-0.5,0.3-1.2,0.3-1.8
		c0-1.4-0.4-2.4-1.3-3.1c-0.9-0.7-2.2-1-4-1h-3.4V200.8z"/>
	<path class="st1" d="M393.3,212.5H391c-0.3,0-0.5-0.1-0.7-0.2c-0.2-0.1-0.3-0.3-0.4-0.5l-2.1-5.5h-10.2l-2.1,5.5
		c-0.1,0.2-0.2,0.4-0.4,0.5c-0.2,0.1-0.4,0.2-0.7,0.2h-2.4l9.1-22.7h3.1L393.3,212.5z M378.5,204h8.5l-3.6-9.2
		c-0.2-0.6-0.5-1.3-0.7-2.1c-0.1,0.4-0.2,0.8-0.3,1.2c-0.1,0.4-0.2,0.7-0.3,1L378.5,204z"/>
	<path class="st1" d="M420.5,193.3c-0.1,0.2-0.2,0.3-0.3,0.4s-0.2,0.1-0.4,0.1c-0.2,0-0.4-0.1-0.6-0.3c-0.2-0.2-0.5-0.4-0.9-0.6
		c-0.4-0.2-0.8-0.4-1.3-0.6s-1.1-0.3-1.9-0.3c-0.7,0-1.3,0.1-1.8,0.3s-1,0.4-1.3,0.8c-0.4,0.3-0.6,0.7-0.8,1.1
		c-0.2,0.4-0.3,0.9-0.3,1.4c0,0.6,0.2,1.2,0.5,1.6c0.3,0.4,0.7,0.8,1.2,1.1c0.5,0.3,1.1,0.6,1.7,0.8c0.6,0.2,1.3,0.4,2,0.7
		c0.7,0.2,1.3,0.5,2,0.8c0.6,0.3,1.2,0.7,1.7,1.1s0.9,1,1.2,1.6s0.5,1.4,0.5,2.4c0,1-0.2,1.9-0.5,2.8c-0.3,0.9-0.8,1.6-1.5,2.3
		c-0.6,0.6-1.4,1.2-2.4,1.5c-0.9,0.4-2,0.6-3.2,0.6c-1.5,0-2.8-0.3-4-0.8c-1.2-0.5-2.2-1.3-3.1-2.2l0.9-1.5c0.1-0.1,0.2-0.2,0.3-0.3
		s0.3-0.1,0.4-0.1c0.2,0,0.5,0.1,0.8,0.4c0.3,0.2,0.6,0.5,1.1,0.8c0.4,0.3,0.9,0.5,1.6,0.8s1.3,0.4,2.2,0.4c0.7,0,1.4-0.1,1.9-0.3
		c0.6-0.2,1.1-0.5,1.4-0.8c0.4-0.4,0.7-0.8,0.9-1.3c0.2-0.5,0.3-1.1,0.3-1.7c0-0.7-0.2-1.2-0.5-1.7c-0.3-0.4-0.7-0.8-1.2-1.1
		c-0.5-0.3-1.1-0.5-1.7-0.8c-0.6-0.2-1.3-0.4-2-0.6c-0.7-0.2-1.3-0.5-2-0.8s-1.2-0.7-1.7-1.1c-0.5-0.5-0.9-1-1.2-1.7
		c-0.3-0.7-0.5-1.5-0.5-2.5c0-0.8,0.2-1.6,0.5-2.3c0.3-0.7,0.8-1.4,1.4-2s1.3-1,2.2-1.4c0.9-0.3,1.9-0.5,3-0.5
		c1.3,0,2.4,0.2,3.5,0.6c1,0.4,2,1,2.7,1.7L420.5,193.3z"/>
	<path class="st1" d="M449.9,193.3c-0.1,0.2-0.2,0.3-0.3,0.4s-0.2,0.1-0.4,0.1c-0.2,0-0.4-0.1-0.6-0.3c-0.2-0.2-0.5-0.4-0.9-0.6
		c-0.4-0.2-0.8-0.4-1.3-0.6s-1.1-0.3-1.9-0.3c-0.7,0-1.3,0.1-1.8,0.3s-1,0.4-1.3,0.8c-0.4,0.3-0.6,0.7-0.8,1.1
		c-0.2,0.4-0.3,0.9-0.3,1.4c0,0.6,0.2,1.2,0.5,1.6c0.3,0.4,0.7,0.8,1.2,1.1c0.5,0.3,1.1,0.6,1.7,0.8c0.6,0.2,1.3,0.4,2,0.7
		c0.7,0.2,1.3,0.5,2,0.8c0.6,0.3,1.2,0.7,1.7,1.1s0.9,1,1.2,1.6s0.5,1.4,0.5,2.4c0,1-0.2,1.9-0.5,2.8c-0.3,0.9-0.8,1.6-1.5,2.3
		c-0.6,0.6-1.4,1.2-2.4,1.5c-0.9,0.4-2,0.6-3.2,0.6c-1.5,0-2.8-0.3-4-0.8c-1.2-0.5-2.2-1.3-3.1-2.2l0.9-1.5c0.1-0.1,0.2-0.2,0.3-0.3
		s0.3-0.1,0.4-0.1c0.2,0,0.5,0.1,0.8,0.4c0.3,0.2,0.6,0.5,1.1,0.8c0.4,0.3,0.9,0.5,1.6,0.8s1.3,0.4,2.2,0.4c0.7,0,1.4-0.1,1.9-0.3
		c0.6-0.2,1.1-0.5,1.4-0.8c0.4-0.4,0.7-0.8,0.9-1.3c0.2-0.5,0.3-1.1,0.3-1.7c0-0.7-0.2-1.2-0.5-1.7c-0.3-0.4-0.7-0.8-1.2-1.1
		c-0.5-0.3-1.1-0.5-1.7-0.8c-0.6-0.2-1.3-0.4-2-0.6c-0.7-0.2-1.3-0.5-2-0.8s-1.2-0.7-1.7-1.1c-0.5-0.5-0.9-1-1.2-1.7
		c-0.3-0.7-0.5-1.5-0.5-2.5c0-0.8,0.2-1.6,0.5-2.3c0.3-0.7,0.8-1.4,1.4-2s1.3-1,2.2-1.4c0.9-0.3,1.9-0.5,3-0.5
		c1.3,0,2.4,0.2,3.5,0.6c1,0.4,2,1,2.7,1.7L449.9,193.3z"/>
	<path class="st1" d="M481.7,189.8v2.5h-10.9v7.5h8.8v2.4h-8.8v7.7h10.9v2.5h-14v-22.7H481.7z"/>
	<path class="st1" d="M514.2,189.8v2.6h-7.3v20.1h-3.1v-20.1h-7.4v-2.6H514.2z"/>
	<path class="st1" d="M541.7,193.3c-0.1,0.2-0.2,0.3-0.3,0.4s-0.2,0.1-0.4,0.1c-0.2,0-0.4-0.1-0.6-0.3c-0.2-0.2-0.5-0.4-0.9-0.6
		c-0.4-0.2-0.8-0.4-1.3-0.6s-1.1-0.3-1.9-0.3c-0.7,0-1.3,0.1-1.8,0.3s-1,0.4-1.3,0.8c-0.4,0.3-0.6,0.7-0.8,1.1
		c-0.2,0.4-0.3,0.9-0.3,1.4c0,0.6,0.2,1.2,0.5,1.6c0.3,0.4,0.7,0.8,1.2,1.1c0.5,0.3,1.1,0.6,1.7,0.8c0.6,0.2,1.3,0.4,2,0.7
		c0.7,0.2,1.3,0.5,2,0.8c0.6,0.3,1.2,0.7,1.7,1.1s0.9,1,1.2,1.6s0.5,1.4,0.5,2.4c0,1-0.2,1.9-0.5,2.8c-0.3,0.9-0.8,1.6-1.5,2.3
		c-0.6,0.6-1.4,1.2-2.4,1.5c-0.9,0.4-2,0.6-3.2,0.6c-1.5,0-2.8-0.3-4-0.8c-1.2-0.5-2.2-1.3-3.1-2.2l0.9-1.5c0.1-0.1,0.2-0.2,0.3-0.3
		s0.3-0.1,0.4-0.1c0.2,0,0.5,0.1,0.8,0.4c0.3,0.2,0.6,0.5,1.1,0.8c0.4,0.3,0.9,0.5,1.6,0.8s1.3,0.4,2.2,0.4c0.7,0,1.4-0.1,1.9-0.3
		c0.6-0.2,1.1-0.5,1.4-0.8c0.4-0.4,0.7-0.8,0.9-1.3c0.2-0.5,0.3-1.1,0.3-1.7c0-0.7-0.2-1.2-0.5-1.7c-0.3-0.4-0.7-0.8-1.2-1.1
		c-0.5-0.3-1.1-0.5-1.7-0.8c-0.6-0.2-1.3-0.4-2-0.6c-0.7-0.2-1.3-0.5-2-0.8s-1.2-0.7-1.7-1.1c-0.5-0.5-0.9-1-1.2-1.7
		c-0.3-0.7-0.5-1.5-0.5-2.5c0-0.8,0.2-1.6,0.5-2.3c0.3-0.7,0.8-1.4,1.4-2s1.3-1,2.2-1.4c0.9-0.3,1.9-0.5,3-0.5
		c1.3,0,2.4,0.2,3.5,0.6c1,0.4,2,1,2.7,1.7L541.7,193.3z"/>
</g>
<g>
	<polygon class="st2" points="167.5,38.2 210.2,38.2 206.3,80.4 	"/>
	<polygon class="st2" points="210.2,38.2 263.2,70.7 225.5,41.6 269,41.6 269,73.7 219.1,124.4 	"/>
	<polygon class="st2" points="198.3,158.8 219.1,124.4 198.3,81.3 	"/>
	<polygon class="st3" points="269,41.5 273.7,54 285.6,50.7 	"/>
	<circle class="st3" cx="281" cy="143.4" r="7.6"/>
	<g>
		<defs>
			<polygon id="SVGID_1_" points="276.2,91.1 278.7,131 270.4,141.7 229.1,133.4 245.1,103.5 270.4,89.8 			"/>
		</defs>
		<clipPath id="SVGID_2_">
			<use xlink:href="#SVGID_1_"  style="overflow:visible;"/>
		</clipPath>
		<circle class="st4" cx="281" cy="143.4" r="16.1"/>
		<circle class="st4" cx="281" cy="143.4" r="25.9"/>
		<circle class="st4" cx="281" cy="143.4" r="35.8"/>
		<circle class="st4" cx="281" cy="143.4" r="46.4"/>
	</g>
</g>
</svg>
